<mxfile host="app.diagrams.net" modified="2022-12-01T06:52:53.702Z" agent="5.0 (Windows NT 10.0; Win64; x64) AppleWebKit/537.36 (KHTML, like Gecko) Chrome/107.0.0.0 Safari/537.36" etag="GtJBAz5PPMrIMLLN2pDR" version="20.6.0" type="github">
  <diagram id="C5RBs43oDa-KdzZeNtuy" name="Page-1">
    <mxGraphModel dx="868" dy="474" grid="1" gridSize="10" guides="1" tooltips="1" connect="1" arrows="1" fold="1" page="1" pageScale="1" pageWidth="827" pageHeight="1169" math="0" shadow="0">
      <root>
        <mxCell id="WIyWlLk6GJQsqaUBKTNV-0" />
        <mxCell id="WIyWlLk6GJQsqaUBKTNV-1" parent="WIyWlLk6GJQsqaUBKTNV-0" />
        <mxCell id="OhOT4lwjtPKI9gb0EfSv-0" value="Transkrip" style="swimlane;whiteSpace=wrap;html=1;" vertex="1" parent="WIyWlLk6GJQsqaUBKTNV-1">
          <mxGeometry x="90" y="110" width="200" height="200" as="geometry" />
        </mxCell>
        <mxCell id="OhOT4lwjtPKI9gb0EfSv-1" value="" style="endArrow=none;html=1;rounded=0;" edge="1" parent="OhOT4lwjtPKI9gb0EfSv-0">
          <mxGeometry width="50" height="50" relative="1" as="geometry">
            <mxPoint y="50" as="sourcePoint" />
            <mxPoint x="200" y="50" as="targetPoint" />
          </mxGeometry>
        </mxCell>
        <mxCell id="OhOT4lwjtPKI9gb0EfSv-2" value="" style="endArrow=none;html=1;rounded=0;" edge="1" parent="OhOT4lwjtPKI9gb0EfSv-0">
          <mxGeometry width="50" height="50" relative="1" as="geometry">
            <mxPoint x="30" y="194" as="sourcePoint" />
            <mxPoint x="30" y="24" as="targetPoint" />
          </mxGeometry>
        </mxCell>
        <mxCell id="OhOT4lwjtPKI9gb0EfSv-4" value="NOID" style="text;html=1;align=center;verticalAlign=middle;resizable=0;points=[];autosize=1;strokeColor=none;fillColor=none;" vertex="1" parent="OhOT4lwjtPKI9gb0EfSv-0">
          <mxGeometry x="30" y="25" width="50" height="30" as="geometry" />
        </mxCell>
        <mxCell id="OhOT4lwjtPKI9gb0EfSv-5" value="Nama MHS" style="text;html=1;align=center;verticalAlign=middle;resizable=0;points=[];autosize=1;strokeColor=none;fillColor=none;" vertex="1" parent="OhOT4lwjtPKI9gb0EfSv-0">
          <mxGeometry x="29" y="59" width="90" height="30" as="geometry" />
        </mxCell>
        <mxCell id="OhOT4lwjtPKI9gb0EfSv-6" value="Mata Kuliah" style="text;html=1;align=center;verticalAlign=middle;resizable=0;points=[];autosize=1;strokeColor=none;fillColor=none;" vertex="1" parent="OhOT4lwjtPKI9gb0EfSv-0">
          <mxGeometry x="30" y="93" width="90" height="30" as="geometry" />
        </mxCell>
        <mxCell id="OhOT4lwjtPKI9gb0EfSv-7" value="IPK" style="text;html=1;align=center;verticalAlign=middle;resizable=0;points=[];autosize=1;strokeColor=none;fillColor=none;" vertex="1" parent="OhOT4lwjtPKI9gb0EfSv-0">
          <mxGeometry x="37" y="130" width="40" height="30" as="geometry" />
        </mxCell>
        <mxCell id="OhOT4lwjtPKI9gb0EfSv-3" value="PK" style="text;html=1;align=center;verticalAlign=middle;resizable=0;points=[];autosize=1;strokeColor=none;fillColor=none;" vertex="1" parent="WIyWlLk6GJQsqaUBKTNV-1">
          <mxGeometry x="84" y="135" width="40" height="30" as="geometry" />
        </mxCell>
        <mxCell id="OhOT4lwjtPKI9gb0EfSv-8" value="Mahasiswa" style="swimlane;whiteSpace=wrap;html=1;" vertex="1" parent="WIyWlLk6GJQsqaUBKTNV-1">
          <mxGeometry x="450" y="280" width="200" height="200" as="geometry" />
        </mxCell>
        <mxCell id="OhOT4lwjtPKI9gb0EfSv-9" value="" style="endArrow=none;html=1;rounded=0;exitX=1;exitY=0.25;exitDx=0;exitDy=0;" edge="1" parent="OhOT4lwjtPKI9gb0EfSv-8" source="OhOT4lwjtPKI9gb0EfSv-8">
          <mxGeometry width="50" height="50" relative="1" as="geometry">
            <mxPoint x="190" y="50" as="sourcePoint" />
            <mxPoint y="50" as="targetPoint" />
          </mxGeometry>
        </mxCell>
        <mxCell id="OhOT4lwjtPKI9gb0EfSv-10" value="" style="endArrow=none;html=1;rounded=0;" edge="1" parent="OhOT4lwjtPKI9gb0EfSv-8">
          <mxGeometry width="50" height="50" relative="1" as="geometry">
            <mxPoint x="30" y="193" as="sourcePoint" />
            <mxPoint x="30" y="23" as="targetPoint" />
          </mxGeometry>
        </mxCell>
        <mxCell id="OhOT4lwjtPKI9gb0EfSv-13" value="NIM" style="text;html=1;align=center;verticalAlign=middle;resizable=0;points=[];autosize=1;strokeColor=none;fillColor=none;" vertex="1" parent="OhOT4lwjtPKI9gb0EfSv-8">
          <mxGeometry x="21" y="25" width="50" height="30" as="geometry" />
        </mxCell>
        <mxCell id="OhOT4lwjtPKI9gb0EfSv-14" value="Nama (50)" style="text;html=1;align=center;verticalAlign=middle;resizable=0;points=[];autosize=1;strokeColor=none;fillColor=none;" vertex="1" parent="OhOT4lwjtPKI9gb0EfSv-8">
          <mxGeometry x="28" y="56" width="80" height="30" as="geometry" />
        </mxCell>
        <mxCell id="OhOT4lwjtPKI9gb0EfSv-15" value="Tempat Lahir (10)" style="text;html=1;align=center;verticalAlign=middle;resizable=0;points=[];autosize=1;strokeColor=none;fillColor=none;" vertex="1" parent="OhOT4lwjtPKI9gb0EfSv-8">
          <mxGeometry x="26" y="87" width="120" height="30" as="geometry" />
        </mxCell>
        <mxCell id="OhOT4lwjtPKI9gb0EfSv-16" value="Tanggal Lahir" style="text;html=1;align=center;verticalAlign=middle;resizable=0;points=[];autosize=1;strokeColor=none;fillColor=none;" vertex="1" parent="OhOT4lwjtPKI9gb0EfSv-8">
          <mxGeometry x="25" y="118" width="100" height="30" as="geometry" />
        </mxCell>
        <mxCell id="OhOT4lwjtPKI9gb0EfSv-17" value="Alamat (50)" style="text;html=1;align=center;verticalAlign=middle;resizable=0;points=[];autosize=1;strokeColor=none;fillColor=none;" vertex="1" parent="OhOT4lwjtPKI9gb0EfSv-8">
          <mxGeometry x="26" y="151" width="90" height="30" as="geometry" />
        </mxCell>
        <mxCell id="OhOT4lwjtPKI9gb0EfSv-12" value="PK" style="text;html=1;align=center;verticalAlign=middle;resizable=0;points=[];autosize=1;strokeColor=none;fillColor=none;" vertex="1" parent="WIyWlLk6GJQsqaUBKTNV-1">
          <mxGeometry x="445" y="304" width="40" height="30" as="geometry" />
        </mxCell>
      </root>
    </mxGraphModel>
  </diagram>
</mxfile>
